<?xml version="1.0" encoding="UTF-8"?><svg id="Layer_2" xmlns="http://www.w3.org/2000/svg" xmlns:xlink="http://www.w3.org/1999/xlink" viewBox="0 0 255.11 72.36"><defs><style>.cls-1{fill:url(#radial-gradient);}.cls-1,.cls-2,.cls-3,.cls-4{stroke-width:0px;}.cls-2{fill:url(#radial-gradient-2);}.cls-3{fill:#77211f;}.cls-4{fill:#0e3148;}</style><radialGradient id="radial-gradient" cx="17.48" cy="25.32" fx="17.48" fy="25.32" r="45.11" gradientTransform="translate(0 .12)" gradientUnits="userSpaceOnUse"><stop offset=".3" stop-color="#00041d"/><stop offset=".42" stop-color="#030922"/><stop offset=".55" stop-color="#0e1830"/><stop offset=".7" stop-color="#203048"/><stop offset=".86" stop-color="#39536a"/><stop offset="1" stop-color="#53778d"/></radialGradient><radialGradient id="radial-gradient-2" cx="23.78" cy="66.1" fx="23.78" fy="73.37" r="14.18" gradientTransform="translate(-8.88 11.87) rotate(-7.85) scale(1 .92) skewX(.29)" gradientUnits="userSpaceOnUse"><stop offset=".25" stop-color="#53778d" stop-opacity="0"/><stop offset=".39" stop-color="#6e8c9f" stop-opacity=".16"/><stop offset=".69" stop-color="#b3c3cc" stop-opacity=".56"/><stop offset="1" stop-color="#fff"/></radialGradient></defs><g id="Layer_1-2"><path class="cls-4" d="M48.52,47.77l-.78.46c-.15-.25-.29-.42-.42-.5-.14-.09-.32-.13-.54-.13-.27,0-.49.08-.67.23-.18.15-.27.34-.27.56,0,.31.23.56.7.76l.64.26c.52.21.9.47,1.14.77.24.3.36.67.36,1.11,0,.59-.2,1.08-.59,1.46-.4.39-.89.58-1.47.58-.56,0-1.02-.16-1.38-.49-.36-.33-.58-.79-.67-1.39l.98-.22c.04.38.12.64.23.78.2.28.49.41.87.41.3,0,.55-.1.75-.3.2-.2.3-.46.3-.77,0-.12-.02-.24-.05-.34-.03-.1-.09-.2-.16-.29-.07-.09-.17-.17-.28-.25-.12-.08-.25-.15-.42-.22l-.62-.26c-.88-.37-1.32-.91-1.32-1.63,0-.48.18-.88.55-1.21.37-.33.83-.49,1.37-.49.74,0,1.32.36,1.73,1.08Z"/><path class="cls-4" d="M50.78,50.05v3.17h-.93v-3.17h-.4v-.87h.4v-1.48h.93v1.48h.73v.87h-.73Z"/><path class="cls-4" d="M52.14,49.18h.93v.36c.17-.18.32-.3.46-.37.14-.07.3-.1.48-.1.25,0,.5.08.77.24l-.43.85c-.18-.13-.35-.19-.52-.19-.51,0-.76.38-.76,1.15v2.1h-.93v-4.04Z"/><path class="cls-4" d="M56.38,49.18v2.32c0,.67.26,1,.79,1s.79-.33.79-1v-2.32h.93v2.34c0,.32-.04.6-.12.84-.08.21-.21.4-.4.57-.32.27-.72.41-1.2.41s-.88-.14-1.2-.41c-.19-.17-.33-.36-.41-.57-.08-.19-.12-.47-.12-.84v-2.34h.93Z"/><path class="cls-4" d="M63.22,49.35v1.24c-.21-.26-.4-.44-.57-.54-.17-.1-.36-.15-.59-.15-.35,0-.64.12-.88.37s-.35.55-.35.93.11.69.34.93c.23.24.52.37.87.37.22,0,.42-.05.59-.15.17-.09.36-.28.58-.55v1.23c-.38.2-.76.29-1.14.29-.63,0-1.15-.2-1.57-.61-.42-.41-.63-.91-.63-1.52s.21-1.11.64-1.53.95-.62,1.57-.62c.4,0,.77.1,1.13.29Z"/><path class="cls-4" d="M65.09,50.05v3.17h-.93v-3.17h-.4v-.87h.4v-1.48h.93v1.48h.73v.87h-.73Z"/><path class="cls-4" d="M67.39,49.18v2.32c0,.67.26,1,.79,1s.79-.33.79-1v-2.32h.93v2.34c0,.32-.04.6-.12.84-.08.21-.21.4-.4.57-.32.27-.72.41-1.2.41s-.88-.14-1.2-.41c-.19-.17-.33-.36-.41-.57-.08-.19-.12-.47-.12-.84v-2.34h.93Z"/><path class="cls-4" d="M71.08,49.18h.93v.36c.17-.18.32-.3.46-.37.14-.07.3-.1.48-.1.25,0,.5.08.77.24l-.43.85c-.18-.13-.35-.19-.52-.19-.51,0-.76.38-.76,1.15v2.1h-.93v-4.04Z"/><path class="cls-4" d="M77.89,51.42h-2.9c.03.33.13.6.32.79.19.19.44.29.73.29.23,0,.42-.06.58-.17.15-.11.32-.32.51-.61l.79.44c-.12.21-.25.39-.39.53-.14.15-.28.27-.44.37-.16.1-.32.17-.5.21-.18.04-.37.07-.58.07-.6,0-1.09-.19-1.45-.58-.37-.39-.55-.91-.55-1.55s.18-1.16.53-1.55c.36-.39.83-.59,1.42-.59s1.07.19,1.41.57c.34.38.51.9.51,1.56v.22ZM76.93,50.66c-.13-.5-.44-.75-.94-.75-.11,0-.22.02-.32.05-.1.03-.19.08-.27.15-.08.06-.15.14-.21.23s-.1.2-.13.31h1.88Z"/><path class="cls-4" d="M81.89,46.21h.94v7.01h-.94v-.42c-.37.36-.78.54-1.25.54-.55,0-1.01-.2-1.38-.61-.36-.41-.54-.93-.54-1.54s.18-1.11.54-1.51c.36-.41.81-.61,1.36-.61.47,0,.9.19,1.27.58v-3.44ZM79.67,51.19c0,.39.1.7.31.95.21.25.48.37.81.37.35,0,.63-.12.84-.36.21-.25.32-.56.32-.94s-.11-.69-.32-.94c-.21-.24-.49-.36-.83-.36-.32,0-.59.12-.81.37-.21.25-.32.55-.32.91Z"/><path class="cls-4" d="M90.34,47.72h-2.57v1.54h2.49v.91h-2.49v2.14h2.57v.91h-3.54v-6.41h3.54v.91Z"/><path class="cls-4" d="M92.69,51.03l-1.45-1.86h1.11l.9,1.18.92-1.18h1.15l-1.49,1.86,1.73,2.19h-1.11l-1.19-1.51-1.22,1.51h-1.14l1.8-2.19Z"/><path class="cls-4" d="M99.72,51.42h-2.9c.03.33.13.6.32.79.19.19.44.29.73.29.23,0,.42-.06.58-.17.15-.11.32-.32.51-.61l.79.44c-.12.21-.25.39-.39.53-.14.15-.28.27-.44.37-.16.1-.32.17-.5.21-.18.04-.37.07-.58.07-.6,0-1.09-.19-1.45-.58-.37-.39-.55-.91-.55-1.55s.18-1.16.53-1.55c.36-.39.83-.59,1.42-.59s1.07.19,1.41.57c.34.38.51.9.51,1.56v.22ZM98.76,50.66c-.13-.5-.44-.75-.94-.75-.11,0-.22.02-.32.05-.1.03-.19.08-.27.15-.08.06-.15.14-.21.23s-.1.2-.13.31h1.88Z"/><path class="cls-4" d="M100.74,49.18h.93v.36c.17-.18.32-.3.46-.37.14-.07.3-.1.48-.1.25,0,.5.08.77.24l-.43.85c-.18-.13-.35-.19-.52-.19-.51,0-.76.38-.76,1.15v2.1h-.93v-4.04Z"/><path class="cls-4" d="M106.99,49.35v1.24c-.21-.26-.4-.44-.57-.54-.17-.1-.36-.15-.59-.15-.35,0-.64.12-.88.37s-.35.55-.35.93.11.69.34.93c.23.24.52.37.87.37.22,0,.42-.05.59-.15.17-.09.36-.28.58-.55v1.23c-.38.2-.76.29-1.14.29-.63,0-1.15-.2-1.57-.61-.42-.41-.63-.91-.63-1.52s.21-1.11.64-1.53.95-.62,1.57-.62c.4,0,.77.1,1.13.29Z"/><path class="cls-4" d="M107.75,47.5c0-.16.06-.3.18-.42s.26-.18.43-.18.31.06.43.18c.12.12.18.26.18.43s-.06.31-.18.43c-.12.12-.26.18-.43.18s-.31-.06-.43-.18-.18-.26-.18-.44ZM108.83,49.18v4.04h-.93v-4.04h.93Z"/><path class="cls-4" d="M112.36,49.87l-.77.41c-.12-.25-.27-.37-.45-.37-.09,0-.16.03-.22.09s-.09.13-.09.22c0,.16.18.31.54.46.49.21.83.41,1,.59.17.18.26.42.26.73,0,.39-.14.72-.43.98-.28.25-.62.37-1.01.37-.68,0-1.16-.33-1.44-.99l.8-.37c.11.19.19.32.25.37.11.11.25.16.41.16.32,0,.47-.14.47-.43,0-.17-.12-.32-.37-.46-.09-.05-.19-.09-.28-.14-.09-.04-.19-.09-.29-.14-.27-.13-.46-.27-.57-.4-.14-.17-.21-.39-.21-.65,0-.35.12-.64.36-.87.25-.23.54-.34.9-.34.52,0,.9.27,1.15.8Z"/><path class="cls-4" d="M117.14,51.42h-2.9c.03.33.13.6.32.79.19.19.44.29.73.29.23,0,.42-.06.58-.17.15-.11.32-.32.51-.61l.79.44c-.12.21-.25.39-.39.53s-.28.27-.44.37c-.16.1-.32.17-.5.21s-.38.07-.58.07c-.6,0-1.09-.19-1.45-.58-.37-.39-.55-.91-.55-1.55s.18-1.16.53-1.55c.36-.39.83-.59,1.42-.59s1.07.19,1.41.57c.34.38.51.9.51,1.56v.22ZM116.18,50.66c-.13-.5-.44-.75-.94-.75-.11,0-.22.02-.32.05-.1.03-.19.08-.27.15-.08.06-.15.14-.21.23-.06.09-.1.2-.13.31h1.88Z"/><path class="cls-4" d="M121.29,49.18l1.05,2.27,1.04-2.27h1.05l-2.1,4.32-2.08-4.32h1.05Z"/><path class="cls-4" d="M128.59,51.42h-2.9c.03.33.13.6.32.79.19.19.44.29.73.29.23,0,.42-.06.58-.17.15-.11.32-.32.51-.61l.79.44c-.12.21-.25.39-.39.53s-.28.27-.44.37c-.16.1-.32.17-.5.21s-.38.07-.58.07c-.6,0-1.09-.19-1.45-.58-.37-.39-.55-.91-.55-1.55s.18-1.16.53-1.55c.36-.39.83-.59,1.42-.59s1.07.19,1.41.57c.34.38.51.9.51,1.56v.22ZM127.63,50.66c-.13-.5-.44-.75-.94-.75-.11,0-.22.02-.32.05-.1.03-.19.08-.27.15-.08.06-.15.14-.21.23-.06.09-.1.2-.13.31h1.88Z"/><path class="cls-4" d="M129.61,49.18h.93v.36c.17-.18.32-.3.46-.37.14-.07.3-.1.48-.1.25,0,.5.08.77.24l-.43.85c-.18-.13-.35-.19-.52-.19-.51,0-.76.38-.76,1.15v2.1h-.93v-4.04Z"/><path class="cls-4" d="M135.14,49.87l-.77.41c-.12-.25-.27-.37-.45-.37-.09,0-.16.03-.22.09s-.09.13-.09.22c0,.16.18.31.54.46.49.21.83.41,1,.59.17.18.26.42.26.73,0,.39-.14.72-.43.98-.28.25-.62.37-1.01.37-.68,0-1.16-.33-1.44-.99l.8-.37c.11.19.19.32.25.37.11.11.25.16.41.16.32,0,.47-.14.47-.43,0-.17-.12-.32-.37-.46-.09-.05-.19-.09-.28-.14-.09-.04-.19-.09-.29-.14-.27-.13-.46-.27-.57-.4-.14-.17-.21-.39-.21-.65,0-.35.12-.64.36-.87.25-.23.54-.34.9-.34.52,0,.9.27,1.15.8Z"/><path class="cls-4" d="M137.17,49.18v2.32c0,.67.26,1,.79,1s.79-.33.79-1v-2.32h.93v2.34c0,.32-.04.6-.12.84-.08.21-.21.4-.4.57-.32.27-.72.41-1.2.41s-.88-.14-1.2-.41c-.19-.17-.33-.36-.41-.57-.08-.19-.12-.47-.12-.84v-2.34h.93Z"/><path class="cls-4" d="M143.22,49.87l-.77.41c-.12-.25-.27-.37-.45-.37-.09,0-.16.03-.22.09s-.09.13-.09.22c0,.16.18.31.54.46.49.21.83.41,1,.59.17.18.26.42.26.73,0,.39-.14.72-.43.98-.28.25-.62.37-1.01.37-.68,0-1.16-.33-1.44-.99l.8-.37c.11.19.19.32.25.37.11.11.25.16.41.16.32,0,.47-.14.47-.43,0-.17-.12-.32-.37-.46-.09-.05-.19-.09-.28-.14-.09-.04-.19-.09-.29-.14-.27-.13-.46-.27-.57-.4-.14-.17-.21-.39-.21-.65,0-.35.12-.64.36-.87.25-.23.54-.34.9-.34.52,0,.9.27,1.15.8Z"/><path class="cls-4" d="M150.66,47.72h-2.57v1.54h2.49v.91h-2.49v2.14h2.57v.91h-3.54v-6.41h3.54v.91Z"/><path class="cls-4" d="M151.75,49.18h.94v.37c.33-.32.69-.49,1.1-.49.47,0,.84.15,1.1.44.23.25.34.66.34,1.23v2.48h-.94v-2.26c0-.4-.06-.67-.17-.83-.11-.15-.3-.23-.59-.23-.31,0-.53.1-.66.31-.13.2-.19.55-.19,1.06v1.95h-.94v-4.04Z"/><path class="cls-4" d="M159.39,46.21h.94v7.01h-.94v-.42c-.37.36-.78.54-1.25.54-.55,0-1.01-.2-1.38-.61-.36-.41-.54-.93-.54-1.54s.18-1.11.54-1.51c.36-.41.81-.61,1.36-.61.47,0,.9.19,1.27.58v-3.44ZM157.17,51.19c0,.39.1.7.31.95.21.25.48.37.8.37.35,0,.63-.12.84-.36.21-.25.32-.56.32-.94s-.11-.69-.32-.94c-.21-.24-.49-.36-.83-.36-.32,0-.59.12-.8.37-.21.25-.32.55-.32.91Z"/><path class="cls-4" d="M161.32,51.17c0-.58.21-1.08.63-1.49.42-.41.93-.61,1.53-.61s1.11.21,1.54.62c.42.41.62.92.62,1.52s-.21,1.11-.63,1.52c-.42.41-.94.61-1.55.61s-1.11-.21-1.52-.62c-.41-.41-.61-.92-.61-1.54ZM162.27,51.19c0,.4.11.72.32.96.22.24.51.36.88.36s.66-.12.88-.35c.22-.24.33-.55.33-.94s-.11-.71-.33-.94c-.22-.24-.51-.36-.88-.36s-.65.12-.87.36c-.22.24-.33.54-.33.92Z"/><path class="cls-4" d="M166.95,49.18l1.05,2.27,1.04-2.27h1.05l-2.1,4.32-2.08-4.32h1.05Z"/><path class="cls-4" d="M173.55,49.18h.94v4.04h-.94v-.42c-.38.36-.8.54-1.24.54-.56,0-1.02-.2-1.39-.61-.36-.41-.54-.93-.54-1.54s.18-1.11.54-1.51.82-.61,1.36-.61c.47,0,.89.19,1.27.58v-.47ZM171.33,51.19c0,.39.1.7.31.95.21.25.48.37.8.37.35,0,.63-.12.84-.36.21-.25.32-.56.32-.94s-.11-.69-.32-.94c-.21-.24-.49-.36-.83-.36-.32,0-.59.12-.8.37-.21.25-.32.55-.32.91Z"/><path class="cls-4" d="M178.02,49.87l-.77.41c-.12-.25-.27-.37-.45-.37-.09,0-.16.03-.22.09s-.09.13-.09.22c0,.16.18.31.54.46.49.21.83.41,1,.59.17.18.26.42.26.73,0,.39-.14.72-.43.98-.28.25-.62.37-1.01.37-.68,0-1.16-.33-1.44-.99l.8-.37c.11.19.19.32.25.37.11.11.25.16.41.16.32,0,.47-.14.47-.43,0-.17-.12-.32-.37-.46-.09-.05-.19-.09-.28-.14-.09-.04-.19-.09-.29-.14-.27-.13-.46-.27-.57-.4-.14-.17-.21-.39-.21-.65,0-.35.12-.64.36-.87.25-.23.54-.34.9-.34.52,0,.9.27,1.15.8Z"/><path class="cls-4" d="M182.26,49.35v1.24c-.21-.26-.4-.44-.57-.54-.17-.1-.36-.15-.58-.15-.35,0-.64.12-.88.37s-.35.55-.35.93.11.69.34.93c.23.24.52.37.87.37.22,0,.42-.05.59-.15.17-.09.36-.28.59-.55v1.23c-.38.2-.76.29-1.14.29-.63,0-1.15-.2-1.57-.61-.42-.41-.63-.91-.63-1.52s.21-1.11.64-1.53.95-.62,1.57-.62c.4,0,.77.1,1.13.29Z"/><path class="cls-4" d="M184.1,49.18v2.32c0,.67.26,1,.79,1s.79-.33.79-1v-2.32h.93v2.34c0,.32-.04.6-.12.84-.08.21-.21.4-.4.57-.32.27-.72.41-1.2.41s-.88-.14-1.2-.41c-.19-.17-.33-.36-.41-.57-.08-.19-.12-.47-.12-.84v-2.34h.93Z"/><path class="cls-4" d="M188.73,46.21v7.01h-.93v-7.01h.93Z"/><path class="cls-4" d="M192.89,49.18h.94v4.04h-.94v-.42c-.38.36-.8.54-1.24.54-.56,0-1.02-.2-1.39-.61-.36-.41-.54-.93-.54-1.54s.18-1.11.54-1.51.82-.61,1.36-.61c.47,0,.89.19,1.27.58v-.47ZM190.68,51.19c0,.39.1.7.31.95.21.25.48.37.8.37.35,0,.63-.12.84-.36.21-.25.32-.56.32-.94s-.11-.69-.32-.94c-.21-.24-.49-.36-.83-.36-.32,0-.59.12-.8.37-.21.25-.32.55-.32.91Z"/><path class="cls-4" d="M195.01,49.18h.93v.36c.17-.18.32-.3.46-.37.14-.07.3-.1.48-.1.25,0,.5.08.77.24l-.43.85c-.18-.13-.35-.19-.52-.19-.51,0-.76.38-.76,1.15v2.1h-.93v-4.04Z"/><path class="cls-4" d="M203.16,50.49l1.98,2.73h-1.18l-1.83-2.62h-.17v2.62h-.97v-6.41h1.13c.85,0,1.46.16,1.84.48.41.35.62.82.62,1.4,0,.45-.13.84-.39,1.17-.26.33-.6.54-1.03.63ZM201.96,49.76h.31c.92,0,1.37-.35,1.37-1.05,0-.66-.45-.98-1.34-.98h-.34v2.03Z"/><path class="cls-4" d="M209.47,51.42h-2.9c.03.33.13.6.32.79.19.19.44.29.73.29.23,0,.42-.06.58-.17.15-.11.32-.32.51-.61l.79.44c-.12.21-.25.39-.39.53s-.28.27-.44.37c-.16.1-.32.17-.5.21s-.38.07-.58.07c-.6,0-1.09-.19-1.45-.58-.37-.39-.55-.91-.55-1.55s.18-1.16.53-1.55c.36-.39.83-.59,1.42-.59s1.07.19,1.41.57c.34.38.51.9.51,1.56v.22ZM208.51,50.66c-.13-.5-.44-.75-.94-.75-.11,0-.22.02-.32.05-.1.03-.19.08-.27.15-.08.06-.15.14-.21.23-.06.09-.1.2-.13.31h1.88Z"/><path class="cls-4" d="M213.64,49.35v1.24c-.21-.26-.4-.44-.57-.54-.17-.1-.36-.15-.58-.15-.35,0-.64.12-.88.37s-.35.55-.35.93.11.69.34.93c.23.24.52.37.87.37.22,0,.42-.05.59-.15.17-.09.36-.28.59-.55v1.23c-.38.2-.76.29-1.14.29-.63,0-1.15-.2-1.57-.61-.42-.41-.63-.91-.63-1.52s.21-1.11.64-1.53.95-.62,1.57-.62c.4,0,.77.1,1.13.29Z"/><path class="cls-4" d="M214.35,51.17c0-.58.21-1.08.63-1.49.42-.41.93-.61,1.53-.61s1.11.21,1.54.62c.42.41.62.92.62,1.52s-.21,1.11-.63,1.52c-.42.41-.94.61-1.55.61s-1.11-.21-1.52-.62c-.41-.41-.61-.92-.61-1.54ZM215.31,51.19c0,.4.11.72.32.96.22.24.51.36.88.36s.66-.12.88-.35c.22-.24.33-.55.33-.94s-.11-.71-.33-.94c-.22-.24-.51-.36-.88-.36s-.65.12-.87.36c-.22.24-.33.54-.33.92Z"/><path class="cls-4" d="M219.65,49.18h.94v.37c.33-.32.69-.49,1.1-.49.47,0,.84.15,1.1.44.23.25.34.66.34,1.23v2.48h-.94v-2.26c0-.4-.06-.67-.17-.83-.11-.15-.3-.23-.59-.23-.31,0-.53.1-.66.31-.13.2-.19.55-.19,1.06v1.95h-.94v-4.04Z"/><path class="cls-4" d="M226.66,49.87l-.77.41c-.12-.25-.27-.37-.45-.37-.09,0-.16.03-.22.09s-.09.13-.09.22c0,.16.18.31.54.46.49.21.83.41,1,.59.17.18.26.42.26.73,0,.39-.14.72-.43.98-.28.25-.62.37-1.01.37-.68,0-1.16-.33-1.44-.99l.8-.37c.11.19.19.32.25.37.11.11.25.16.41.16.32,0,.47-.14.47-.43,0-.17-.12-.32-.37-.46-.09-.05-.19-.09-.28-.14-.09-.04-.19-.09-.29-.14-.27-.13-.46-.27-.57-.4-.14-.17-.21-.39-.21-.65,0-.35.12-.64.36-.87.25-.23.54-.34.9-.34.52,0,.9.27,1.15.8Z"/><path class="cls-4" d="M228.73,50.05v3.17h-.93v-3.17h-.4v-.87h.4v-1.48h.93v1.48h.73v.87h-.73Z"/><path class="cls-4" d="M230.09,49.18h.93v.36c.17-.18.32-.3.46-.37.14-.07.3-.1.48-.1.25,0,.5.08.77.24l-.43.85c-.18-.13-.35-.19-.52-.19-.51,0-.76.38-.76,1.15v2.1h-.93v-4.04Z"/><path class="cls-4" d="M234.33,49.18v2.32c0,.67.26,1,.79,1s.79-.33.79-1v-2.32h.93v2.34c0,.32-.04.6-.12.84-.08.21-.21.4-.4.57-.32.27-.72.41-1.2.41s-.88-.14-1.2-.41c-.19-.17-.33-.36-.41-.57-.08-.19-.12-.47-.12-.84v-2.34h.93Z"/><path class="cls-4" d="M241.17,49.35v1.24c-.21-.26-.4-.44-.57-.54-.17-.1-.36-.15-.58-.15-.35,0-.64.12-.88.37s-.35.55-.35.93.11.69.34.93c.23.24.52.37.87.37.22,0,.42-.05.59-.15.17-.09.36-.28.59-.55v1.23c-.38.2-.76.29-1.14.29-.63,0-1.15-.2-1.57-.61-.42-.41-.63-.91-.63-1.52s.21-1.11.64-1.53.95-.62,1.57-.62c.4,0,.77.1,1.13.29Z"/><path class="cls-4" d="M243.04,50.05v3.17h-.93v-3.17h-.4v-.87h.4v-1.48h.93v1.48h.73v.87h-.73Z"/><path class="cls-4" d="M244.26,47.5c0-.16.06-.3.18-.42.12-.12.26-.18.43-.18s.31.06.43.18c.12.12.18.26.18.43s-.06.31-.18.43c-.12.12-.26.18-.43.18s-.31-.06-.43-.18c-.12-.12-.18-.26-.18-.44ZM245.33,49.18v4.04h-.93v-4.04h.93Z"/><path class="cls-4" d="M246.33,51.17c0-.58.21-1.08.63-1.49.42-.41.93-.61,1.53-.61s1.11.21,1.54.62c.42.41.62.92.62,1.52s-.21,1.11-.63,1.52c-.42.41-.94.61-1.55.61s-1.11-.21-1.52-.62c-.41-.41-.61-.92-.61-1.54ZM247.28,51.19c0,.4.11.72.32.96.22.24.51.36.88.36s.66-.12.88-.35c.22-.24.33-.55.33-.94s-.11-.71-.33-.94c-.22-.24-.51-.36-.88-.36s-.65.12-.87.36c-.22.24-.33.54-.33.92Z"/><path class="cls-4" d="M251.63,49.18h.94v.37c.33-.32.69-.49,1.1-.49.47,0,.84.15,1.1.44.23.25.34.66.34,1.23v2.48h-.94v-2.26c0-.4-.06-.67-.17-.83-.11-.15-.3-.23-.59-.23-.31,0-.53.1-.66.31-.13.2-.19.55-.19,1.06v1.95h-.94v-4.04Z"/><path class="cls-4" d="M44.57,58.8c0-.16.06-.3.18-.42s.26-.18.43-.18.31.06.43.18c.12.12.18.26.18.43s-.06.31-.18.43c-.12.12-.26.18-.43.18s-.31-.06-.43-.18-.18-.26-.18-.44ZM45.65,60.48v4.04h-.93v-4.04h.93Z"/><path class="cls-4" d="M46.83,60.48h.94v.37c.33-.32.69-.49,1.1-.49.47,0,.84.15,1.1.44.23.25.34.66.34,1.23v2.48h-.94v-2.26c0-.4-.06-.67-.17-.83-.11-.15-.3-.23-.59-.23-.31,0-.53.1-.66.31-.13.2-.19.55-.19,1.06v1.95h-.94v-4.04Z"/><path class="cls-4" d="M55.26,61.92v2.6h-.97v-6.41h1.1c.54,0,.94.04,1.22.11.28.07.52.22.73.42.37.36.55.81.55,1.36,0,.59-.2,1.05-.59,1.39s-.92.51-1.59.51h-.45ZM55.26,61.02h.36c.89,0,1.33-.34,1.33-1.02s-.46-.99-1.37-.99h-.32v2.02Z"/><path class="cls-4" d="M58.27,62.47c0-.58.21-1.08.63-1.49.42-.41.93-.61,1.53-.61s1.11.21,1.54.62c.41.41.62.92.62,1.52s-.21,1.11-.63,1.52c-.42.41-.94.61-1.55.61s-1.11-.21-1.52-.62c-.41-.41-.61-.92-.61-1.54ZM59.22,62.49c0,.4.11.72.32.96.22.24.51.36.88.36s.66-.12.88-.35c.22-.24.33-.55.33-.94s-.11-.71-.33-.94c-.22-.24-.51-.36-.88-.36s-.65.12-.87.36c-.22.24-.33.54-.33.92Z"/><path class="cls-4" d="M65.92,61.17l-.77.41c-.12-.25-.27-.37-.45-.37-.09,0-.16.03-.22.09s-.09.13-.09.22c0,.16.18.31.54.46.5.21.83.41,1,.59.17.18.26.42.26.73,0,.39-.14.72-.43.98-.28.25-.62.37-1.01.37-.68,0-1.16-.33-1.44-.99l.8-.37c.11.19.2.32.25.37.11.11.25.16.41.16.32,0,.47-.14.47-.43,0-.17-.12-.32-.37-.46-.09-.05-.19-.09-.28-.14-.09-.04-.19-.09-.29-.14-.27-.13-.46-.27-.57-.4-.14-.17-.21-.39-.21-.65,0-.35.12-.64.36-.87.25-.23.55-.34.9-.34.52,0,.9.27,1.15.8Z"/><path class="cls-4" d="M67.98,61.35v3.17h-.93v-3.17h-.4v-.87h.4v-1.48h.93v1.48h.73v.87h-.73Z"/><path class="cls-4" d="M73.91,59.02v5.5h-.97v-5.5h-1.47v-.91h3.91v.91h-1.47Z"/><path class="cls-4" d="M76.06,57.51h.93v3.3c.33-.3.7-.45,1.1-.45.46,0,.82.15,1.1.44.23.26.35.67.35,1.23v2.48h-.93v-2.39c0-.32-.06-.56-.17-.7-.11-.15-.3-.22-.55-.22-.33,0-.56.1-.69.3-.13.21-.2.56-.2,1.05v1.95h-.93v-7.01Z"/><path class="cls-4" d="M80.73,60.48h.93v.36c.17-.18.32-.3.46-.37.14-.07.3-.1.48-.1.25,0,.5.08.77.24l-.43.85c-.18-.13-.35-.19-.52-.19-.51,0-.76.38-.76,1.15v2.1h-.93v-4.04Z"/><path class="cls-4" d="M83.64,62.47c0-.58.21-1.08.63-1.49.42-.41.93-.61,1.53-.61s1.11.21,1.54.62c.41.41.62.92.62,1.52s-.21,1.11-.63,1.52c-.42.41-.94.61-1.55.61s-1.11-.21-1.52-.62c-.41-.41-.61-.92-.61-1.54ZM84.59,62.49c0,.4.11.72.32.96.22.24.51.36.88.36s.66-.12.88-.35c.22-.24.33-.55.33-.94s-.11-.71-.33-.94c-.22-.24-.51-.36-.88-.36s-.65.12-.87.36c-.22.24-.33.54-.33.92Z"/><path class="cls-4" d="M88.94,60.48h.93v.37c.18-.19.33-.32.46-.38.14-.07.31-.1.51-.1.46,0,.82.2,1.08.6.29-.4.69-.6,1.19-.6.91,0,1.37.55,1.37,1.66v2.5h-.94v-2.25c0-.39-.05-.66-.14-.82-.1-.16-.26-.25-.48-.25-.26,0-.44.1-.56.29-.12.19-.18.5-.18.93v2.09h-.94v-2.23c0-.72-.21-1.08-.62-1.08-.26,0-.45.1-.57.29-.12.2-.18.51-.18.93v2.09h-.93v-4.04Z"/><path class="cls-4" d="M96.6,57.51v3.44c.37-.39.8-.58,1.27-.58.55,0,1,.2,1.36.61.36.4.54.91.54,1.51s-.18,1.14-.55,1.54c-.36.4-.82.61-1.37.61-.47,0-.89-.18-1.25-.54v.42h-.93v-7.01h.93ZM98.82,62.53c0-.39-.11-.7-.32-.95-.21-.25-.48-.37-.8-.37-.34,0-.62.12-.84.36-.21.24-.32.55-.32.93s.1.71.32.94c.21.24.49.36.83.36.32,0,.59-.12.81-.36.22-.24.32-.55.32-.91Z"/><path class="cls-4" d="M100.57,62.47c0-.58.21-1.08.63-1.49.42-.41.93-.61,1.53-.61s1.11.21,1.54.62c.41.41.62.92.62,1.52s-.21,1.11-.63,1.52c-.42.41-.94.61-1.55.61s-1.11-.21-1.52-.62c-.41-.41-.61-.92-.61-1.54ZM101.52,62.49c0,.4.11.72.32.96.22.24.51.36.88.36s.66-.12.88-.35c.22-.24.33-.55.33-.94s-.11-.71-.33-.94c-.22-.24-.51-.36-.88-.36s-.65.12-.87.36c-.22.24-.33.54-.33.92Z"/><path class="cls-4" d="M106.88,61.35v3.17h-.93v-3.17h-.4v-.87h.4v-1.48h.93v1.48h.73v.87h-.73Z"/><path class="cls-4" d="M108.1,58.8c0-.16.06-.3.18-.42s.26-.18.43-.18.31.06.43.18c.12.12.18.26.18.43s-.06.31-.18.43c-.12.12-.26.18-.43.18s-.31-.06-.43-.18-.18-.26-.18-.44ZM109.17,60.48v4.04h-.93v-4.04h.93Z"/><path class="cls-4" d="M113.5,60.66v1.24c-.21-.26-.4-.44-.57-.54-.17-.1-.36-.15-.58-.15-.35,0-.64.12-.88.37s-.35.55-.35.93.11.69.34.93c.23.24.52.37.87.37.22,0,.42-.05.59-.15.17-.09.36-.28.59-.55v1.23c-.38.2-.76.29-1.14.29-.63,0-1.15-.2-1.57-.61-.42-.41-.63-.91-.63-1.52s.21-1.11.64-1.53.95-.62,1.57-.62c.4,0,.77.1,1.13.29Z"/><path class="cls-4" d="M120.83,59.07l-.78.46c-.15-.25-.29-.42-.42-.5-.14-.09-.32-.13-.54-.13-.27,0-.49.08-.67.23-.18.15-.27.34-.27.56,0,.31.23.56.7.76l.64.26c.52.21.9.47,1.14.77s.36.67.36,1.11c0,.59-.2,1.08-.59,1.46-.4.39-.89.58-1.47.58-.56,0-1.02-.16-1.38-.49-.36-.33-.58-.79-.67-1.39l.98-.22c.04.38.12.64.23.78.2.28.49.41.87.41.3,0,.55-.1.75-.3.2-.2.3-.46.3-.77,0-.12-.02-.24-.05-.34-.04-.1-.09-.2-.16-.29-.07-.09-.17-.17-.28-.25-.12-.08-.25-.15-.41-.22l-.62-.26c-.88-.37-1.32-.91-1.32-1.63,0-.48.18-.88.55-1.21.37-.33.83-.49,1.37-.49.74,0,1.32.36,1.73,1.08Z"/><path class="cls-4" d="M123.26,63.77l-1.82-3.29h1.08l1.24,2.32,1.15-2.32h1.05l-3.22,6.24h-1.07l1.58-2.95Z"/><path class="cls-4" d="M126.6,60.48h.94v.37c.33-.32.69-.49,1.1-.49.47,0,.84.15,1.1.44.23.25.34.66.34,1.23v2.48h-.94v-2.26c0-.4-.06-.67-.17-.83-.11-.15-.3-.23-.59-.23-.31,0-.53.1-.66.31-.13.2-.19.55-.19,1.06v1.95h-.94v-4.04Z"/><path class="cls-4" d="M134.24,57.51h.94v7.01h-.94v-.42c-.37.36-.78.54-1.25.54-.55,0-1.01-.2-1.38-.61-.36-.41-.54-.93-.54-1.54s.18-1.11.54-1.51c.36-.41.81-.61,1.36-.61.47,0,.9.19,1.27.58v-3.44ZM132.03,62.49c0,.39.1.7.31.95.21.25.48.37.8.37.35,0,.63-.12.84-.36.21-.25.32-.56.32-.94s-.11-.69-.32-.94c-.21-.24-.49-.36-.83-.36-.32,0-.59.12-.8.37-.21.25-.32.55-.32.91Z"/><path class="cls-4" d="M136.36,60.48h.93v.36c.17-.18.32-.3.46-.37.14-.07.3-.1.48-.1.25,0,.5.08.77.24l-.43.85c-.18-.13-.35-.19-.52-.19-.51,0-.76.38-.76,1.15v2.1h-.93v-4.04Z"/><path class="cls-4" d="M139.27,62.47c0-.58.21-1.08.63-1.49.42-.41.93-.61,1.53-.61s1.11.21,1.54.62c.42.41.62.92.62,1.52s-.21,1.11-.63,1.52c-.42.41-.94.61-1.55.61s-1.11-.21-1.52-.62c-.41-.41-.61-.92-.61-1.54ZM140.23,62.49c0,.4.11.72.32.96.22.24.51.36.88.36s.66-.12.88-.35c.22-.24.33-.55.33-.94s-.11-.71-.33-.94c-.22-.24-.51-.36-.88-.36s-.65.12-.87.36c-.22.24-.33.54-.33.92Z"/><path class="cls-4" d="M144.57,60.48h.93v.37c.18-.19.33-.32.46-.38.14-.07.31-.1.51-.1.46,0,.82.2,1.08.6.29-.4.69-.6,1.19-.6.91,0,1.36.55,1.36,1.66v2.5h-.94v-2.25c0-.39-.05-.66-.14-.82-.1-.16-.26-.25-.48-.25-.26,0-.44.1-.56.29s-.18.5-.18.93v2.09h-.94v-2.23c0-.72-.21-1.08-.62-1.08-.26,0-.45.1-.57.29-.12.2-.18.51-.18.93v2.09h-.93v-4.04Z"/><path class="cls-4" d="M154.98,62.72h-2.9c.03.33.13.6.32.79.19.19.44.29.73.29.23,0,.42-.06.58-.17.15-.11.32-.32.51-.61l.79.44c-.12.21-.25.39-.39.53s-.28.27-.44.37c-.16.1-.32.17-.5.21s-.38.07-.58.07c-.6,0-1.09-.19-1.45-.58-.37-.39-.55-.91-.55-1.55s.18-1.16.53-1.55c.36-.39.83-.59,1.42-.59s1.07.19,1.41.57c.34.38.51.9.51,1.56v.22ZM154.02,61.96c-.13-.5-.44-.75-.94-.75-.11,0-.22.02-.32.05-.1.03-.19.08-.27.15-.08.06-.15.14-.21.23-.06.09-.1.2-.13.31h1.88Z"/><path class="cls-4" d="M157.82,30.74h7.68v3.37h-7.68v-3.37Z"/><path class="cls-4" d="M60.83,18.33l-3.25,1.93c-.61-1.06-1.19-1.74-1.74-2.06-.57-.37-1.31-.55-2.22-.55-1.11,0-2.04.32-2.77.95-.73.62-1.1,1.4-1.1,2.34,0,1.3.96,2.34,2.89,3.13l2.65,1.08c2.16.87,3.73,1.94,4.73,3.19,1,1.26,1.5,2.8,1.5,4.62,0,2.44-.81,4.46-2.44,6.06-1.64,1.61-3.68,2.41-6.11,2.41-2.31,0-4.21-.68-5.71-2.05-1.48-1.37-2.4-3.29-2.77-5.77l4.06-.89c.18,1.56.5,2.64.96,3.24.83,1.15,2.03,1.72,3.61,1.72,1.25,0,2.29-.42,3.11-1.26.83-.84,1.24-1.9,1.24-3.18,0-.52-.07-.99-.22-1.42s-.37-.83-.67-1.19c-.3-.36-.7-.7-1.18-1.02-.48-.32-1.06-.62-1.72-.9l-2.56-1.07c-3.64-1.54-5.46-3.79-5.46-6.75,0-2,.76-3.67,2.29-5.01,1.53-1.35,3.42-2.03,5.7-2.03,3.06,0,5.46,1.49,7.18,4.47Z"/><path class="cls-4" d="M79.69,18.14h-10.65v6.38h10.34v3.77h-10.34v8.88h10.65v3.77h-14.66V14.37h14.66v3.77Z"/><path class="cls-4" d="M86.3,24.18l4.34,9.41,4.32-9.41h4.35l-8.71,17.92-8.64-17.92h4.34Z"/><path class="cls-4" d="M116.67,18.14h-10.65v6.38h10.34v3.77h-10.34v8.88h10.65v3.77h-14.66V14.37h14.66v3.77Z"/><path class="cls-4" d="M129.62,29.62l8.23,11.32h-4.9l-7.59-10.88h-.72v10.88h-4.01V14.37h4.7c3.51,0,6.05.66,7.61,1.98,1.72,1.47,2.58,3.41,2.58,5.82,0,1.88-.54,3.5-1.62,4.85s-2.5,2.22-4.27,2.6ZM124.63,26.57h1.27c3.8,0,5.7-1.45,5.7-4.35,0-2.72-1.85-4.08-5.54-4.08h-1.43v8.43Z"/><path class="cls-4" d="M154.38,33.48h-12.01c.1,1.38.55,2.47,1.34,3.29.79.8,1.81,1.2,3.05,1.2.96,0,1.76-.23,2.39-.69.62-.46,1.33-1.31,2.12-2.55l3.27,1.82c-.51.86-1.04,1.6-1.6,2.21-.56.61-1.16,1.12-1.81,1.51s-1.34.69-2.08.87c-.75.18-1.56.28-2.43.28-2.5,0-4.51-.8-6.02-2.41-1.51-1.62-2.27-3.76-2.27-6.44s.73-4.8,2.2-6.44c1.48-1.62,3.44-2.43,5.89-2.43s4.42.79,5.85,2.36c1.42,1.56,2.13,3.72,2.13,6.49l-.02.91ZM150.41,30.31c-.54-2.07-1.84-3.1-3.91-3.1-.47,0-.91.07-1.33.21-.41.14-.79.35-1.13.62s-.63.59-.87.97c-.24.38-.42.81-.55,1.29h7.78Z"/><path class="cls-4" d="M172.69,30.15v10.79h-4.01V14.37h4.54c2.23,0,3.91.15,5.04.46,1.15.31,2.16.89,3.03,1.76,1.53,1.49,2.29,3.37,2.29,5.64,0,2.43-.81,4.36-2.44,5.78-1.63,1.42-3.83,2.13-6.59,2.13h-1.86ZM172.69,26.44h1.5c3.68,0,5.52-1.42,5.52-4.25s-1.9-4.11-5.7-4.11h-1.33v8.36Z"/><path class="cls-4" d="M195.04,18.14v22.8h-4.01v-22.8h-6.11v-3.77h16.21v3.77h-6.09Z"/><path class="cls-4" d="M219.04,18.33l-3.25,1.93c-.61-1.06-1.19-1.74-1.74-2.06-.57-.37-1.31-.55-2.22-.55-1.11,0-2.04.32-2.77.95-.73.62-1.1,1.4-1.1,2.34,0,1.3.96,2.34,2.89,3.13l2.65,1.08c2.16.87,3.73,1.94,4.73,3.19,1,1.26,1.5,2.8,1.5,4.62,0,2.44-.81,4.46-2.44,6.06-1.64,1.61-3.68,2.41-6.11,2.41-2.31,0-4.21-.68-5.71-2.05-1.48-1.37-2.4-3.29-2.77-5.77l4.06-.89c.18,1.56.5,2.64.96,3.24.83,1.15,2.03,1.72,3.61,1.72,1.25,0,2.29-.42,3.11-1.26.83-.84,1.24-1.9,1.24-3.18,0-.52-.07-.99-.22-1.42-.14-.43-.37-.83-.67-1.19s-.7-.7-1.18-1.02c-.48-.32-1.06-.62-1.72-.9l-2.56-1.07c-3.64-1.54-5.46-3.79-5.46-6.75,0-2,.76-3.67,2.29-5.01,1.53-1.35,3.42-2.03,5.7-2.03,3.06,0,5.46,1.49,7.18,4.47Z"/><circle class="cls-3" cx="10.87" cy="23.98" r="10.87"/><path class="cls-1" d="M35,12.38C33.29,6.85,29.33,1.36,20.13.18c-.68-.09-1.31-.15-1.9-.18-2.87-.11-5.32,1.95-5.62,4.79-.03.32-.06.62-.09.92,0,.07,0,.13-.01.2.54-.05,1.08-.08,1.63-.08,9.62,0,17.42,7.8,17.42,17.42,0,8-5.39,14.72-12.74,16.76.26,2.14.09,6.9-.39,8.33-.46,1.4-1.04,2.77-.73,4.3.26,1.32.66,1.62.34,4.13s-1.43,5.44-3.39,8.05c-2.14,2.85-4.17,6.52-1.33,7.52h14.48c1.42,0,2.32-1.35,1.65-2.48-.51-.85-.84-1.85-.62-2.85.59-2.68,4.27-3.98,2.81-7.39-.99-2.33-1.31-4.41-.72-6.64.32-1.2,1.21-3.04.54-5.77-1.49-6.04-2.36-7.69,1.42-15.75,3.2-6.83,3.94-13.24,2.13-19.09Z"/><circle class="cls-3" cx="14.14" cy="23.26" r="14.14"/><path class="cls-2" d="M28.93,64.86c.41-.51,1.96-1.83,1.86-2.81-.08-.79-1.32-1.58-3.1-1.7-2.08-.14-4.55.46-5.86,2.68-1.63,2.77-3.94,5.21-5.33,6.44-.72.64.05,1.17.51,1.28,1.72.43,5.42.39,8.79-.63.8-.24,1.65-1.4,1.83-2.18.22-.96,0-1.47,1.29-3.09Z"/></g></svg>